<svg width="142" height="327" viewBox="0 0 142 327" fill="none" xmlns="http://www.w3.org/2000/svg">
<path fill-rule="evenodd" clip-rule="evenodd" d="M109.05 1.75C106.911 3.615 0.868433 179.269 0.0624325 182.283C-0.199567 183.263 0.387433 184.951 1.36643 186.033C3.08443 187.932 4.65944 188 46.8364 188C87.8924 188 90.6264 187.89 92.1814 186.171C94.3294 183.798 94.2774 181.709 92.0214 179.667C90.4154 178.214 85.8044 177.994 52.0894 177.762L13.9724 177.5L54.6544 109.868C77.0294 72.671 95.4744 42.359 95.6434 42.509C95.8124 42.659 90.7154 60.912 84.3154 83.072C71.6744 126.847 71.5044 128 77.6924 128C79.2874 128 81.0304 127.438 81.5664 126.75C82.7124 125.28 116.838 7.295 116.837 4.807C116.836 3.272 113.356 0 111.724 0C111.358 0 110.154 0.787 109.05 1.75ZM49.4914 140.829C47.3434 143.202 47.3954 145.291 49.6514 147.333C51.2574 148.786 55.8684 149.006 89.5854 149.238L127.703 149.5L87.0194 217.135C64.6434 254.335 46.2074 284.655 46.0494 284.515C45.8914 284.374 50.6964 267.213 56.7284 246.379C70.4494 198.984 69.4394 203.324 67.3004 200.96C65.1034 198.533 62.6344 198.456 60.5764 200.75C59.0974 202.398 24.8364 318.992 24.8364 322.375C24.8364 324.877 29.3174 327.348 31.6194 326.116C33.7394 324.981 141.836 146.167 141.836 143.794C141.836 142.978 141.013 141.565 140.007 140.655C138.365 139.168 133.751 139 94.6624 139C53.7744 139 51.0464 139.11 49.4914 140.829Z" fill="black"/>
</svg>
